<svg xmlns="http://www.w3.org/2000/svg" version="1.1" xmlns:xlink="http://www.w3.org/1999/xlink" xmlns:svgjs="http://svgjs.dev/svgjs" width="1440" height="1000" preserveAspectRatio="none" viewBox="0 0 1440 1000"><g mask="url(&quot;#SvgjsMask1014&quot;)" fill="none"><rect width="1440" height="1000" x="0" y="0" fill="rgba(6, 6, 25, 1)"></rect><path d="M27.44 250C17.01 232.44 2.16 239.24 0 219.59C-11.56 114.24 -54.17 55.63 0 0C52.74 -54.17 112.05 -13.33 213.82 0C237.05 3.04 232.22 32.74 250 32.74C267.08 32.74 261.29 2.91 283.54 0C386.29 -13.46 391.77 0 500 0C625 0 625 0 750 0C875 0 875 0 1000 0C1125 0 1125 0 1250 0C1309.03 0 1315.08 -19.36 1368.06 0C1440.08 26.32 1466.83 28.49 1500 91.35C1532.8 153.49 1500 170.68 1500 250C1500 375 1500 375 1500 500C1500 625 1500 625 1500 750C1500 875 1562.5 937.5 1500 1000C1437.5 1062.5 1375 1000 1250 1000C1156.25 1000 1145.59 1023.59 1062.5 1000C1020.59 988.1 1037.2 929.01 1000 929.01C943.45 929.01 941.86 981.01 875 1000C816.86 1016.51 812.5 1000 750 1000C625 1000 625 1000 500 1000C448.72 1000 443.9 1016.96 397.44 1000C318.9 971.32 331.27 930.88 250 908.73C132.55 876.72 79.85 942.37 0 891.67C-45.15 863.01 0 820.84 0 750C0 671.3 -37.69 649.12 0 592.59C45.65 524.12 161.18 568.49 166.67 500C174.9 397.2 100.34 372.65 27.44 250" stroke="rgba(199, 0, 250, 0.58)" stroke-width="2"></path><path d="M500 682.69C466.23 689.37 462.77 715.88 462.77 750C462.77 787.58 463.65 816.5 500 826.09C607.27 854.38 642.75 854.22 750 825.76C786.13 816.17 786.76 786.75 786.76 750C786.76 720.46 780.52 700.34 750 693.18C637.14 666.69 609.85 660.96 500 682.69" stroke="rgba(199, 0, 250, 0.58)" stroke-width="2"></path><path d="M103.66 250C54.69 190.19 27.67 201.86 0 135.14C-24.16 76.86 -33.33 34.24 0 0C32.46 -33.33 75.11 -24.2 131.58 0C200.11 29.37 191.8 107.14 250 107.14C305.89 107.14 294.46 27.98 359.76 0C419.46 -25.59 429.88 0 500 0C610.58 0 615.17 -11.56 721.15 0C740.17 2.08 731.78 27.27 750 27.27C808.71 27.27 811.77 6.9 875 0C936.77 -6.74 937.5 0 1000 0C1053.57 0 1054.53 -7.65 1107.14 0C1179.53 10.53 1186.03 1.92 1250 36.36C1382.46 107.69 1388.99 116.67 1500 211.54C1513.99 223.49 1500 230.77 1500 250C1500 375 1500 375 1500 500C1500 625 1500 625 1500 750C1500 869.18 1505.09 871.2 1500 988.37C1499.66 996.2 1496.93 999.64 1489.13 1000C1371.93 1005.45 1369.57 1000 1250 1000C1190.22 1000 1177.59 1027.94 1130.43 1000C1052.59 953.87 1069.83 921.2 1000 851.85C943.96 796.2 928.77 810.26 878.68 750C803.77 659.9 833.48 626.03 750 551.14C694.14 501.03 674.85 526 600 500C549.85 482.58 552.01 473.13 500 464.29C377.01 443.37 351.29 495.24 250 440.48C153.12 388.1 179.69 342.86 103.66 250" stroke="rgba(199, 0, 250, 0.58)" stroke-width="2"></path><path d="M0 708.33C107.93 654.36 144.48 611.67 250 625C309.38 632.5 329.79 694.8 329.79 750C329.79 787.06 296.83 804.2 250 809.52C131.93 822.95 108.75 813.39 0 787.5C-16.25 783.63 0 768.75 0 750C0 729.16 -17.07 716.86 0 708.33" stroke="rgba(199, 0, 250, 0.58)" stroke-width="2"></path><path d="M179.88 250C179.88 213.28 214.94 215.77 250 181.55C342.99 90.77 335.69 72.83 435.98 0C460.69 -17.94 467.99 0 500 0C550.48 0 559.73 -23.24 600.96 0C684.73 47.21 670.32 76.9 750 140.91C825.92 201.9 912.16 189.19 912.16 250C912.16 318.73 843.9 385.08 750 400C637.82 417.82 628.05 330.52 500 315.48C378.05 301.16 359.78 363.73 250 341.27C199.72 330.99 179.88 293.14 179.88 250" stroke="rgba(199, 0, 250, 0.58)" stroke-width="2"></path><path d="M49.34 0C49.34 14.93 14.37 50.68 0 50.68C-10.3 50.68 -12.5 12.84 0 0C12.17 -12.5 49.34 -10.41 49.34 0" stroke="rgba(199, 0, 250, 0.58)" stroke-width="2"></path><path d="M1092.86 250C1127.01 175.29 1172.68 150 1250 150C1321.77 150 1324.55 195.16 1391.03 250C1449.55 298.28 1471.98 291.97 1500 356.25C1526.47 416.97 1500 428.13 1500 500C1500 625 1500 625 1500 750C1500 796.51 1522.17 805.26 1500 843.02C1448.8 930.26 1437.69 946.99 1353.26 1000C1312.69 1025.48 1301.63 1000 1250 1000C1224.18 1000 1198.37 1019.53 1198.37 1000C1198.37 928.19 1208.4 898.74 1250 817.31C1272.26 773.74 1326.09 784.82 1326.09 750C1326.09 713.12 1292.01 673.91 1250 673.91C1195.63 673.91 1196.67 724.47 1133.33 750C1071.67 774.86 1063.41 774.69 1000 774.69C982.04 774.69 970.59 767.12 970.59 750C970.59 695.95 974.26 686.23 1000 632.35C1033.97 561.23 1071.88 574.62 1090 500C1118.31 383.44 1047.01 350.29 1092.86 250" stroke="rgba(199, 0, 250, 0.58)" stroke-width="2"></path></g><defs><mask id="SvgjsMask1014"><rect width="1440" height="1000" fill="#ffffff"></rect></mask></defs></svg>